<svg xmlns="http://www.w3.org/2000/svg" version="1.1" viewBox="23.729999542236328 49.47983169555664 671.3099975585938 939.8763427734375" width="671.3099975585938" height="939.8763427734375">
<path fill="#000000" d="   M 354.96 50.01   A 0.40 0.39 0.8 0 1 355.35 49.64   L 362.78 49.48   A 0.36 0.35 85.6 0 1 363.14 49.80   Q 363.95 56.54 364.20 61.73   Q 364.71 72.17 364.86 72.27   Q 364.97 72.34 368.98 129.00   Q 372.70 181.44 373.57 192.30   C 374.37 202.16 375.08 217.84 375.68 225.13   Q 377.35 245.22 379.54 279.75   C 380.66 297.58 382.60 320.48 383.72 339.75   C 385.29 366.56 387.78 395.75 389.28 421.12   Q 390.33 438.64 392.06 461.48   A 0.70 0.67 18.5 0 0 392.31 461.96   L 444.08 504.46   A 0.41 0.41 0.0 0 0 444.61 504.45   L 480.59 471.61   A 3.18 3.14 -19.5 0 0 481.60 469.52   L 511.07 49.72   A 0.18 0.18 0.0 0 1 511.25 49.55   L 519.01 49.57   A 0.13 0.12 87.4 0 1 519.13 49.69   L 548.03 458.66   A 3.45 3.42 -72.4 0 0 549.28 461.09   L 604.10 506.10   A 0.87 0.87 0.0 0 1 604.20 507.34   L 594.63 518.22   A 0.50 0.50 0.0 0 1 593.93 518.28   L 520.03 457.61   A 0.39 0.38 43.8 0 0 519.52 457.62   L 445.45 525.24   A 0.91 0.91 0.0 0 1 444.25 525.27   L 362.98 458.55   A 0.25 0.24 -45.9 0 0 362.66 458.56   L 286.06 528.50   A 0.65 0.64 43.5 0 1 285.22 528.52   L 206.01 463.48   A 1.30 1.30 0.0 0 0 204.31 463.53   L 136.74 525.22   A 0.54 0.53 47.7 0 1 135.99 525.18   L 125.83 514.05   A 0.60 0.59 48.0 0 1 125.87 513.20   Q 135.63 504.46 167.20 475.96   Q 168.68 474.62 169.41 473.23   A 2.37 2.22 -31.3 0 0 169.66 472.33   Q 171.53 442.88 174.15 406.71   Q 176.03 380.77 176.65 369.78   C 177.57 353.61 178.99 338.40 180.20 320.57   Q 183.27 275.23 183.84 268.25   C 185.52 247.80 186.55 228.33 188.21 206.60   Q 191.42 164.71 192.17 153.27   Q 192.47 148.64 196.93 85.50   Q 197.49 77.60 199.76 49.73   A 0.28 0.27 2.2 0 1 200.04 49.48   L 207.39 49.55   A 0.25 0.24 0.1 0 1 207.63 49.78   L 236.66 467.03   A 2.58 2.55 17.8 0 0 237.59 468.82   L 284.25 507.13   A 1.14 1.13 -46.4 0 0 285.74 507.09   L 324.60 471.61   A 2.77 2.75 71.0 0 0 325.49 469.77   L 354.96 50.01   Z" data-element-id="el-1771749120055-0"/>
<path fill="#000000" d="   M 229.87 226.43   L 227.58 192.05   A 0.62 0.61 -14.6 0 1 227.94 191.46   C 252.23 180.34 278.37 172.64 304.50 168.02   C 314.91 166.19 325.17 165.25 336.69 164.12   A 0.32 0.32 0.0 0 1 337.03 164.46   L 334.86 196.85   A 0.52 0.52 0.0 0 1 334.39 197.33   Q 284.46 201.88 238.06 223.11   Q 233.57 225.16 230.76 226.89   A 0.59 0.58 72.3 0 1 229.87 226.43   Z" data-element-id="el-1771749120055-1"/>
<path fill="#000000" d="   M 488.86 226.47   A 0.59 0.59 0.0 0 1 487.97 226.93   Q 485.16 225.20 480.65 223.14   Q 434.14 201.85 384.09 197.28   A 0.52 0.52 0.0 0 1 383.62 196.80   L 381.44 164.33   A 0.32 0.32 0.0 0 1 381.79 163.99   C 393.33 165.13 403.62 166.07 414.06 167.91   C 440.25 172.54 466.45 180.26 490.80 191.41   A 0.62 0.61 14.6 0 1 491.16 192.01   L 488.86 226.47   Z" data-element-id="el-1771749120055-2"/>
<path fill="#000000" d="   M 695.04 512.87   Q 695.04 513.20 695.04 513.25   Q 694.77 549.90 688.09 583.25   Q 665.95 693.81 585.26 770.39   C 572.10 782.88 556.86 794.98 541.20 805.46   A 0.37 0.36 -14.7 0 1 540.63 805.13   L 543.52 763.96   A 2.77 2.73 72.5 0 1 544.51 762.02   C 597.06 718.79 633.96 661.81 651.02 596.37   Q 657.99 569.60 660.62 540.99   Q 661.98 526.18 661.99 512.84   Q 662.00 499.50 660.67 484.69   Q 658.08 456.07 651.16 429.29   C 634.20 363.82 597.40 306.78 544.92 263.47   A 2.77 2.73 -72.4 0 1 543.93 261.53   L 541.11 220.35   A 0.37 0.36 14.8 0 1 541.68 220.02   C 557.32 230.53 572.54 242.65 585.68 255.16   Q 666.25 331.88 688.20 442.47   Q 694.83 475.83 695.04 512.48   Q 695.04 512.53 695.04 512.87   Z" data-element-id="el-1771749120055-3"/>
<path fill="#000000" d="   M 56.76 512.95   Q 56.77 526.28 58.14 541.08   Q 60.78 569.66 67.75 596.41   C 84.83 661.79 121.72 718.71 174.25 761.88   A 2.77 2.73 -72.5 0 1 175.24 763.82   L 178.14 804.95   A 0.37 0.36 14.7 0 1 177.58 805.28   C 161.92 794.82 146.69 782.73 133.54 770.26   Q 52.88 693.78 30.71 583.32   Q 24.02 550.00 23.73 513.38   Q 23.73 513.32 23.73 512.99   Q 23.73 512.66 23.73 512.61   Q 23.93 475.99 30.53 442.65   Q 52.43 332.14 132.89 255.45   C 146.02 242.95 161.22 230.82 176.85 220.32   A 0.37 0.36 -14.8 0 1 177.42 220.65   L 174.61 261.79   A 2.77 2.73 72.4 0 1 173.63 263.73   C 121.21 307.04 84.46 364.04 67.55 429.47   Q 60.64 456.23 58.07 484.82   Q 56.74 499.62 56.76 512.95   Z" data-element-id="el-1771749120055-4"/>
<path fill="#000000" d="   M 127.31 955.63   L 193.53 901.04   A 1.47 1.47 0.0 0 0 194.06 899.81   C 193.32 888.50 192.10 875.58 191.47 863.40   Q 191.29 859.91 187.04 794.76   Q 184.73 759.26 184.61 758.01   Q 183.40 745.04 181.02 706.32   Q 179.17 676.22 177.84 658.63   Q 177.56 654.98 176.40 635.25   Q 173.93 593.25 172.33 575.14   Q 171.51 565.90 171.37 556.05   A 0.59 0.58 -21.6 0 0 170.39 555.63   L 138.86 584.42   A 0.74 0.74 0.0 0 1 137.82 584.37   L 128.00 573.61   A 1.02 1.02 0.0 0 1 128.07 572.16   L 204.61 503.83   A 0.68 0.67 -45.3 0 1 205.49 503.82   L 284.60 568.76   A 0.80 0.79 43.8 0 0 285.64 568.74   L 361.33 499.63   A 1.42 1.41 43.5 0 1 363.18 499.59   L 443.52 565.54   A 1.28 1.28 0.0 0 0 445.19 565.50   L 519.06 498.06   A 0.42 0.42 0.0 0 1 519.61 498.04   L 603.07 566.56   A 0.75 0.74 -49.8 0 1 603.15 567.62   L 593.45 578.65   A 0.55 0.55 0.0 0 1 592.69 578.71   L 548.71 542.60   A 0.25 0.25 0.0 0 0 548.30 542.78   L 523.98 906.43   A 2.10 2.09 -68.9 0 0 524.76 908.20   L 595.15 964.42   A 0.38 0.38 0.0 0 1 595.21 964.96   L 585.79 976.76   A 0.46 0.46 0.0 0 1 585.14 976.83   L 516.00 921.60   A 0.72 0.72 0.0 0 0 515.07 921.63   L 441.06 989.20   A 0.61 0.60 -45.4 0 1 440.26 989.21   L 359.62 918.31   A 0.75 0.75 0.0 0 0 358.65 918.30   L 280.72 982.54   A 0.48 0.47 -44.0 0 1 280.11 982.53   L 203.20 914.11   A 0.54 0.53 45.4 0 0 202.50 914.10   L 137.25 967.89   A 0.50 0.50 0.0 0 1 136.54 967.82   L 127.23 956.53   A 0.64 0.64 0.0 0 1 127.31 955.63   Z   M 392.51 544.29   A 0.22 0.22 0.0 0 0 392.15 544.44   C 390.16 570.17 388.82 595.10 386.66 625.10   Q 385.51 641.08 384.32 659.90   Q 382.07 695.46 379.60 731.26   C 377.65 759.48 375.75 784.60 374.65 803.51   C 373.44 824.15 371.65 843.24 370.43 864.21   Q 368.78 892.76 368.11 900.52   Q 367.95 902.32 368.08 904.29   A 1.04 1.02 18.8 0 0 368.43 904.99   L 439.99 967.91   A 0.89 0.88 -45.7 0 0 441.18 967.89   L 506.35 908.40   A 2.11 2.11 0.0 0 0 507.03 906.72   C 505.18 877.01 502.33 840.30 500.16 804.55   C 498.88 783.33 496.89 760.14 495.87 740.90   C 494.69 718.83 492.78 695.28 491.13 670.71   Q 487.54 616.85 487.15 611.49   Q 487.02 609.62 483.39 558.37   Q 483.05 553.62 482.81 552.86   A 0.07 0.07 0.0 0 0 482.69 552.83   L 445.31 586.95   A 0.62 0.62 0.0 0 1 444.49 586.97   L 392.51 544.29   Z   M 285.69 589.80   A 0.34 0.34 0.0 0 1 285.24 589.81   L 235.95 549.34   A 0.34 0.34 0.0 0 0 235.40 549.58   L 211.93 900.50   A 0.34 0.34 0.0 0 0 212.04 900.78   L 280.61 961.79   A 0.34 0.34 0.0 0 0 281.05 961.79   L 350.44 904.60   A 0.34 0.34 0.0 0 0 350.56 904.32   L 326.90 552.93   A 0.34 0.34 0.0 0 0 326.33 552.71   L 285.69 589.80   Z" data-element-id="el-1771749120055-5"/>
<path fill="#000000" d="   M 335.62 827.73   L 337.86 859.95   A 0.35 0.34 -0.7 0 1 337.49 860.32   Q 307.28 858.69 278.90 851.03   Q 258.58 845.55 246.63 840.84   Q 234.85 836.19 226.49 832.43   A 0.52 0.50 -76.9 0 1 226.19 831.93   L 228.62 797.39   A 0.48 0.48 0.0 0 1 229.31 796.99   Q 271.63 817.85 317.87 825.35   Q 325.69 826.61 334.97 827.09   A 0.69 0.69 0.0 0 1 335.62 827.73   Z" data-element-id="el-1771749120055-6"/>
<path fill="#000000" d="   M 383.57 827.12   Q 392.85 826.65 400.67 825.41   Q 446.91 817.98 489.25 797.20   A 0.48 0.48 0.0 0 1 489.94 797.60   L 492.31 832.14   A 0.52 0.50 77.0 0 1 492.01 832.64   Q 483.65 836.38 471.86 841.01   Q 459.91 845.70 439.58 851.14   Q 411.20 858.75 380.99 860.33   A 0.35 0.34 0.8 0 1 380.63 859.96   L 382.92 827.76   A 0.69 0.68 -89.4 0 1 383.57 827.12   Z" data-element-id="el-1771749120055-7"/>
</svg>